<svg width="323" height="444" viewBox="0 0 323 444" fill="none" xmlns="http://www.w3.org/2000/svg">
<path d="M72.5 443.7H7.30001C3.00001 443.7 -0.299989 440 0.100011 435.8L53.5 6.6C53.8 2.9 57 0 60.7 0H126C130.3 0 133.6 3.7 133.2 7.9L79.8 437C79.5 440.7 76.3 443.6 72.6 443.6L72.5 443.7Z" fill="white"/>
<path d="M193.8 163.7L146.5 201C143.5 203.4 143 207.7 145.3 210.7L209.4 292.1C210.7 293.7 212.6 294.7 214.6 294.7H233.1C234.7 294.7 235.3 296.7 234.1 297.6L124.6 383.8C121.6 386.2 121.1 390.5 123.4 393.5L160.7 440.8C163.1 443.8 167.4 444.3 170.4 442L320.1 324.1C323.1 321.7 323.6 317.4 321.3 314.4L203.4 164.7C201 161.7 196.7 161.2 193.7 163.5L193.8 163.7Z" fill="#E5294E"/>
</svg>
